<svg xmlns="http://www.w3.org/2000/svg" width="297.726" height="40.813" viewBox="0 0 297.726 40.813">
  <g id="barmer-63473" transform="translate(-8.504 -84.333)">
    <path id="Path_41" data-name="Path 41" d="M8.5,125.144V84.333H41.309c7.173,0,9.563,4.32,9.563,10.915,0,4.982-.806,8.411-6.019,9.737,4.781.979,6.422,5.241,6.422,9.734,0,5.558-2.246,10.425-8.409,10.425Zm48.387,0L71.264,84.333H85.809l13.048,40.811H86.9l-2.966-9.477H68.931l-3.256,9.477Zm49.05,0V84.333h32.517c6.165,0,8.7,3.312,8.7,9.3,0,4.032-.23,10.053-5.3,10.83l-1.814.288,1.613.288c3.513.662,5.214,4.523,5.214,7.72v12.385H136.53v-10.83l-.086-1.3c-.2-2.938-1.3-4.694-4.493-4.694H117.377v16.822H105.941v0Zm49.973,0,7.259-40.811H176.39l5.358,23.989,5.27-23.989h13.076l6.309,40.811H195.6L191.914,99.8l-4.9,25.346H174.491L169.332,99.8l-4.952,25.346Zm60.628,0V84.333h37.269v7.344H227.891v9.3h25.228v7.342H227.891V117.8h25.921v7.345H216.542Zm48.472,0V84.333h32.517c6.193,0,8.7,3.254,8.7,9.3,0,4.032-.232,10.053-5.3,10.83l-1.813.288,1.586.288c3.544.662,5.211,4.523,5.211,7.72v12.385h-10.34v-10.83l-.086-1.3c-.173-2.938-1.267-4.694-4.493-4.694H276.449v16.822H265.014v0Z" transform="translate(0 0)" fill="#13293d" fill-rule="evenodd"/>
    <path id="Path_42" data-name="Path 42" d="M15.254,114.79H33.485c2.016,0,2.477-2.965,2.477-4.433,0-4.062-.778-5.043-4.723-5.043H15.254v9.477Zm0-16.819H31.239c3.513,0,5.011-.4,5.011-4.293,0-4.32-.95-5.011-5.011-5.011H15.254v9.3Zm51.555,7.342h10.11l-4.811-15.35Zm45.882-7.342h15.553c3.11,0,3.859-2.3,3.859-5.042,0-2.909-.893-4.262-3.859-4.262H112.691Zm159.073,0h15.524c3.11,0,3.861-2.3,3.861-5.042,0-2.909-.893-4.262-3.861-4.262H271.764Z" transform="translate(4.685 3.009)" fill="#f6f8f8" fill-rule="evenodd"/>
  </g>
</svg>
