<svg xmlns="http://www.w3.org/2000/svg" width="331.46" height="96.635" viewBox="0 0 331.46 96.635">
  <g id="hyperx" transform="translate(0.059 -256.898)">
    <path id="Path_38" data-name="Path 38" d="M10562.451,2174.693c-1,.262-7.07-1.815-8.764-2.268a137.665,137.665,0,0,0-26.652-4.034c-.238-.007-1.873.043-2-.255-.033-.079-.123-.055-.176-.1-.516.359.225.158-.9.246-.375.029-1.025-.026-1.42-.041-3.35-.128-16.088.186-17.816.949.832.309,9.111.993,10.93,1.255a154.614,154.614,0,0,1,55.244,19.166c1.432.829,6.969,4,7.627,4.783a45.245,45.245,0,0,1-5.641,3.468c-22.533,13.462-54.248,20.472-80.268,23.391-8.234.923-18.043,1.544-26.436,1.781-2.961.083-6.34-.009-9.232.255.607-.064,7.084.865,8.578,1.006,21.5,2.036,44.217,1.947,65.5-1.152,16.59-2.416,31.176-6.381,45.729-13.629a107.621,107.621,0,0,0,12.445-7.575c1.418.663,5.73,4.4,7.295,5.657.582.469.781.748,1.381,1.207l2.754,2.428a35.647,35.647,0,0,0,2.74,2.446c.895.808,1.672,1.75,2.578,2.6l3.84,3.938c.49.528.967.828,1.48,1.339l4.9,5.46c4.395,5.354,7.256,8.779,11.3,14.617a30.1,30.1,0,0,0,2.121,3.091c-.646-2.733-4.473-11.644-5.811-14.484-6.109-12.969-10.229-17.79-18.334-27.594l-3.914-3.859c-.488-.464-.725-.868-1.217-1.368-.939-.959-1.859-1.237-2.742-2.551l4.006-4.352a66.755,66.755,0,0,0,10.035-15.4,75.808,75.808,0,0,0,6.877-27.024l-2.637,6.306a83.2,83.2,0,0,1-11.957,18.427l-15.689,14.89-5.9-3.616a102.678,102.678,0,0,0-16.607-7.889c-.666-.255-1.137-.444-1.725-.635-.16-.052-.838-.252-.9-.279C10562.045,2174.854,10562.406,2175.391,10562.451,2174.693Z" transform="translate(-10298.186 -1891.191)" fill="#13293d" fill-rule="evenodd"/>
    <path id="Path_39" data-name="Path 39" d="M171.218,2526.08c.686.229,4.8,2.416,5.245,3.034a45.776,45.776,0,0,1-4.578,1.951c-2.808,1.192-2.287.419-3.175,3.413-.7,2.365-2.783,8.2-2.963,10.121l50.72-.03,2.436-8.074-38.049-.043,16.374-7.038c-1.121-1.135-10.933-6.007-12.328-7.053a1.64,1.64,0,0,1-.426-.386l38.777-.017,2.447-8.139-50.8.006Zm-61.445,18.508,11.194.02,6.833-22.6c7.782-.337,19.839.035,28.287-.054-.766,3.353-1.266,2.78-4.339,4.055a54.344,54.344,0,0,1-6.086,2.434l-16.9.041a62.041,62.041,0,0,0-2.42,8.144c5.473-.1,11.021-.012,16.5-.012,6.467,0,6.177-.464,13.034-3.418,2-.861,3.823-1.607,5.793-2.456,4.765-2.053,3.024-.168,6.16-10.32a63.258,63.258,0,0,0,1.909-6.616l-50.72.009-9.248,30.774Zm116.9-16.392c.053.041.143.017.176.1.124.3,1.758.248,2,.254a137.658,137.658,0,0,1,26.652,4.034c1.693.453,7.768,2.53,8.763,2.268,2.168-.925,4.473-1.836,6.68-2.714l5.025-2.043c1.025-.411.967-.226,1.315-1.278.8-2.411,1.49-4.983,2.21-7.437a71.959,71.959,0,0,0,2.192-7.575l-50.744.013-4.268,14.382Zm-164.658-6.554,12.773,10.982c.4.372.656.5,1.045.846.709.628,1.462,1.212,1.963,1.709l-2.759,9.375,11.2.039c.605-1.873,1.127-3.745,1.705-5.605.928-2.987.3-3.108,2.949-4.583l18.886-10.792c2.635-1.543,2.7-.77,3.616-3.916a52.355,52.355,0,0,0,1.7-5.9l-11.164.006c-1.742,5.388.3,3.141-8.178,8.024-1.693.974-9.424,5.63-10.7,5.905a4.875,4.875,0,0,0-1.153-1.158l-9.611-8.193,1.3-4.564-11.233-.019-2.341,7.839Zm-16.751,3.465-25.414.056-2.489,8.064,25.414.071-3.339,11.263,11.216.045,9.217-30.715-11.222-.08-3.383,11.3ZM-.059,2544.583l11.141.024,9.223-30.725-11.021-.069c-.26.433-9.2,29.633-9.344,30.77Zm237.925-16.1q9.133-.032,18.281,0c3.345.014,6.69-1.724,10.2-3.3,1.159-.519,1.21-.969,1.677-3.23l-27.9.009c-.8.224-2.122,5.825-2.263,6.519Zm-16.133,16.093.965.036,9.422,0,.829-.044,2.323-7.665c-1.371-.834-8.488-2.307-10.485-2.6l-3.055,10.271Z" transform="translate(0 -2251.348)" fill="#13293d" fill-rule="evenodd"/>
  </g>
</svg>
