<svg xmlns="http://www.w3.org/2000/svg" width="267.835" height="74.497" viewBox="0 0 267.835 74.497">
  <path id="v-power-1" d="M307.424,35.683a15.248,15.248,0,0,0-10.024,8.16c-.985,2.04-1.161,2.814-1.266,5.8a12.609,12.609,0,0,0,.633,5.8,15.08,15.08,0,0,0,25.077,5.627,14.916,14.916,0,0,0,4.467-10.622c0-2.145-.246-3.236-1.512-6.366-1.618-4.115-6.014-7.562-10.727-8.476a12.176,12.176,0,0,0-6.647.07Zm3.447,3.2c.035.352,0,1.618-.035,2.814-.035,1.829.035,2.216.492,2.216.317,0,.563-.106.563-.281a4.98,4.98,0,0,1,1.583-1.125,6.3,6.3,0,0,0,1.583-1.055,3.777,3.777,0,0,1,1.231-.844c1.688-.914,2.181-.352.95,1.125-1.97,2.392-2.5,3.165-2.286,3.376a18.635,18.635,0,0,0,3.658.211c1.97,0,3.552.141,3.658.352.352.6-1.266,1.688-2.884,1.934-2.6.387-2.5.668,1.759,4.185a7.064,7.064,0,0,1,1.653,1.688c0,.457-1.548.317-2.673-.211a14.547,14.547,0,0,0-1.864-.739c-.774-.246-.809-.176-.633.914.387,2.673,1.02,5.451,1.372,5.838a.772.772,0,0,1,.106.809c-.352.528-2.568-1.829-3.06-3.2-.563-1.653-1.337-1.09-2.357,1.618-1.125,3.025-2.11,4.572-2.6,4.08-.246-.246-.211-1.02.07-2.356a23.62,23.62,0,0,0,.387-2.673c0-.739-.774-.844-1.477-.176a36.229,36.229,0,0,1-5.592,3.412c-.633,0-.281-.7,1.3-2.673.879-1.09,1.477-2.11,1.3-2.251a18.723,18.723,0,0,0-3.763-.633,21.9,21.9,0,0,1-3.623-.563c-.422-.387.352-.879,1.759-1.09,1.723-.246,3.412-.844,3.412-1.231a6.577,6.577,0,0,0-1.477-1.336c-2.392-1.794-3.8-3.1-3.8-3.517,0-.633,1.266-.492,2.814.281,2.075,1.055,2.567.95,2.286-.457-.141-.6-.457-1.759-.739-2.532-.528-1.583-.633-3.552-.211-3.834.352-.211,1.618,1.407,1.97,2.462a3.756,3.756,0,0,0,.914,1.372c.668.6.7.6.914-.035.422-1.161,1.477-3.8,2.04-5.17.6-1.372,1.231-1.723,1.3-.7ZM59.434,46.691c-.563.352-.914,2.849-.492,3.482a9.039,9.039,0,0,0,3.517.739c4.115.387,5.065,1.02,3.587,2.5a2.9,2.9,0,0,1-3.693,0c-2.04-1.336-4.713-.528-3.236.985.457.457,1.407.563,4.889.528a32.946,32.946,0,0,0,5.065-.246c.844-.246,1.407-2.11.985-3.165-.387-.985-2.075-1.618-4.432-1.618-2.321,0-3.8-.633-3.8-1.583,0-1.3,3.271-1.653,4.607-.528,1.055.95,3.236.844,3.412-.141a.947.947,0,0,0-.352-.95c-.6-.387-9.461-.387-10.059,0Zm13.084.141a37.415,37.415,0,0,0-.07,4.115l.106,3.658,1.02.246c1.512.422,1.97-.141,1.97-2.321,0-1.794.035-1.9,1.055-2.11,1.618-.352,2.392.07,2.638,1.372a6.534,6.534,0,0,1,.176,1.653c-.141.985,0,1.3.739,1.477,1.442.387,1.723-.035,1.723-2.6,0-2.356-.035-2.427-1.125-2.99a4.857,4.857,0,0,0-2.99-.387c-2,.211-1.97.246-2.356-1.618-.211-.809-.387-.95-1.477-.95-.668,0-1.3.211-1.407.457Zm24.373-.246a18.406,18.406,0,0,0-.246,4.009c0,4.15.211,4.643,1.864,4.326l.985-.176-.106-4.115-.106-4.08-1.055-.106A2.254,2.254,0,0,0,96.891,46.586Zm5.205.563a25.159,25.159,0,0,0-.106,4.115L102.1,54.6l1.02.246c1.723.457,1.97-.07,1.97-3.9,0-4.291-.106-4.572-1.618-4.572-.95,0-1.231.176-1.372.774ZM85.179,49.47a3.825,3.825,0,0,0-.985,3.763c.176,1.02.422,1.266,1.512,1.583,1.723.492,2.5.457,2.5-.141a1.619,1.619,0,0,0-.563-.95c-.492-.422-.492-.492.07-.914.774-.563,3.517-.6,3.869-.035.141.211-.07.668-.492,1.02-1.548,1.231-.387,1.829,2,.985,1.161-.422,1.3-.668.7-1.266-.281-.281-.281-.457,0-.6a2.471,2.471,0,0,0,.387-1.583c0-2.04-.95-2.5-4.994-2.5-2.567,0-3.447.141-4.009.633Zm5.487.774c.528.985.176,1.407-1.266,1.407-1.337,0-1.9-.739-1.2-1.583A1.553,1.553,0,0,1,90.666,50.244ZM58.52,66.739a5.587,5.587,0,0,0,.879,3.025,22.346,22.346,0,0,1,1.02,2.286c.387,1.055,1.125,2.779,1.583,3.8a16.029,16.029,0,0,1,.879,2.04c0,.106.492,1.231,1.055,2.5a15.151,15.151,0,0,1,1.055,2.567,23.042,23.042,0,0,0,1.794,3.939,2.924,2.924,0,0,1,.317,1.055,12.786,12.786,0,0,0,1.055,2.532,12.537,12.537,0,0,1,1.055,2.392,14.857,14.857,0,0,0,1.055,2.638c.563,1.231,1.055,2.356,1.055,2.462a26.226,26.226,0,0,0,1.055,2.462A19.311,19.311,0,0,1,73.432,103a7.764,7.764,0,0,0,.739,1.829c.387.844,1.02,2.075,1.336,2.743l.6,1.231h7.7l.95-1.9a19.077,19.077,0,0,0,1.2-2.638c.141-.422.7-1.723,1.231-2.919a13.637,13.637,0,0,0,1.02-2.5,12.538,12.538,0,0,1,1.055-2.392A17.867,17.867,0,0,0,90.314,94.1a22.282,22.282,0,0,1,1.055-2.532,13.845,13.845,0,0,0,1.055-2.638,2.839,2.839,0,0,1,.317-.985,16.879,16.879,0,0,0,1.02-2.181c.387-.879,1.2-2.673,1.794-3.974a17.16,17.16,0,0,0,1.09-2.743A2.448,2.448,0,0,1,97,78.1c.176-.317.668-1.407,1.055-2.356.914-2.11,1.653-3.834,2.286-5.276,1.548-3.552,1.583-3.728,1.125-3.9-.246-.07-2.814-.106-5.663-.07L90.6,66.6l-1.512,3.693c-.809,2.04-1.829,4.432-2.251,5.346a11.7,11.7,0,0,0-.739,2.04,2.564,2.564,0,0,1-.352.985c-.352.668-1.407,3.13-2.11,4.994-.246.668-.739,1.864-1.055,2.638s-.879,2.11-1.231,2.99a10.73,10.73,0,0,1-.95,1.934c-.457.492-1.512-.844-2.216-2.814a55.108,55.108,0,0,0-2.286-5.522,2.472,2.472,0,0,1-.352-1.055,4.251,4.251,0,0,0-.457-1.337c-.246-.492-.739-1.688-1.09-2.638a55.951,55.951,0,0,0-2.321-5.522,2.472,2.472,0,0,1-.352-1.055,8.8,8.8,0,0,0-.7-1.864,8.728,8.728,0,0,1-.7-1.829c0-.246-.317-.6-.668-.809-.844-.422-10.481-.492-10.727-.035Zm65.559,20.786c0,11.606.106,21.1.281,21.1,4.115.141,9.707,0,9.953-.246a41.925,41.925,0,0,0,.387-6.964l.106-6.682,4.572-.211c7.6-.352,10.762-1.2,13.295-3.623,2.286-2.145,3.412-5.557,3.412-10.411,0-4.783-1.09-8.124-3.412-10.375-1.688-1.618-2.462-2.04-5.768-2.954-2.427-.668-3.552-.739-12.732-.739H124.078Zm18.676-12.064c1.759,1.09,2.427,2.462,2.427,4.924-.035,2.251-.422,3.2-1.759,4.256-2,1.548-7.351,2.427-8.371,1.407-.6-.6-.6-11.044.035-11.325a19.4,19.4,0,0,1,3.447-.106C140.855,74.687,141.8,74.9,142.754,75.461Zm28.1,4.326c-4.326,1.161-6.682,2.638-8.969,5.557a13.4,13.4,0,0,0-2.919,8.23c-.457,7.562,3.763,13.47,11.044,15.4,2.5.668,3.517.774,7.245.6,5.909-.246,8.547-1.231,11.923-4.467,1.829-1.759,3.482-4.5,3.482-5.7a1.43,1.43,0,0,1,.387-.879c.633-.633.492-7.069-.211-8.722-1.688-4.08-2.673-5.487-5.1-7.245C183.517,79.506,176.342,78.31,170.856,79.787Zm8.441,8.371a7.17,7.17,0,0,1,3.869,6.507,6.988,6.988,0,1,1-12.837-3.939C172.263,87.6,176.448,86.434,179.3,88.158Zm85.993-8.863c-6.26,1.688-8.969,3.658-11.079,7.913-3.517,7.21-1.3,16.249,4.889,20.153,2.567,1.653,5.416,2.321,9.707,2.321,7.316,0,11.29-1.97,13.963-6.929.739-1.372.809-2.216.211-2.251-.246,0-2.286,0-4.5.035-3.728.035-4.115.106-4.924.844a6.755,6.755,0,0,1-4.713,1.97c-3.306,0-6.788-3.376-6.471-6.225l.106-.985,10.9-.176,10.9-.176-.07-2.427c-.211-5.838-3.939-11.431-8.652-12.943-.633-.211-1.512-.528-2-.739A34.062,34.062,0,0,0,265.29,79.295Zm5.627,6.155c1.9.528,4.115,2.849,3.974,4.15l-.106.914-5.768.106a33.81,33.81,0,0,1-6.085-.211c-.563-.563.457-2.849,1.759-3.869A6.456,6.456,0,0,1,270.917,85.45Zm35.452-5.311c-2.5.281-4.748,1.548-5.663,3.2-1.055,1.829-1.829,1.02-1.829-1.9v-1.3h-4.924c-3.06,0-4.924.141-4.924.352v27.785c0,.211,1.864.352,4.889.352h4.889l.141-7.667c.176-8.441.352-9.25,2.743-11.5,1.09-1.055,1.161-1.055,5.029-1.055l3.939-.035.106-3.482a27.587,27.587,0,0,0-.106-4.326C310.449,79.717,310.238,79.682,306.369,80.139Zm-111.211.317c-.352.211-.281.6.281,1.653a5.877,5.877,0,0,1,.739,1.794.579.579,0,0,0,.281.528c.211.07,5.838,11.044,9.531,18.57.457.879.95,1.864,1.125,2.216.211.352.668,1.266,1.09,2.04l.7,1.372h6.647l1.055-2.392c.6-1.3,1.759-3.8,2.6-5.522.809-1.759,1.9-4.08,2.427-5.205,1.407-3.13,1.512-3.06,4.959,4.5.739,1.548,1.794,3.834,2.356,5.1s1.161,2.532,1.3,2.814c.211.387,1.09.563,3.658.633l3.376.106.95-1.864c.528-1.02,1.161-2.356,1.442-2.919.281-.6.668-1.372.879-1.759s2.427-4.678,4.854-9.5c2.462-4.854,4.643-9.144,4.854-9.6.246-.422.6-1.125.809-1.512.281-.6.281-.844-.105-1.055-.668-.422-8.652-.387-9.461.07a6.151,6.151,0,0,0-1.583,2.356c-1.09,2.532-3.517,7.632-4.889,10.411-.563,1.2-1.266,2.145-1.548,2.145-.317,0-1.688-2.567-3.517-6.507-1.653-3.587-3.271-7-3.552-7.562-.528-1.02-.633-1.055-3.13-1.161-2.04-.07-2.708.035-3.236.492a1.867,1.867,0,0,0-.668.95,13.921,13.921,0,0,1-1.055,2.6c-1.583,3.306-2.99,6.366-4.009,8.617a6.687,6.687,0,0,1-1.583,2.392c-.633.317-.774.176-1.407-1.266a16.821,16.821,0,0,1-.739-1.759c0-.07-.7-1.618-1.548-3.412-2.216-4.678-3.025-6.507-3.025-6.858a2.812,2.812,0,0,0-.739-1.055c-.668-.739-.985-.774-5.205-.739a27.032,27.032,0,0,0-4.924.281Zm-93.7,6.577a16.937,16.937,0,0,0-.246,3.869c0,2.954.106,3.623.563,3.8.844.317,14.315.246,14.842-.07.317-.211.422-1.266.352-3.974L116.868,87l-7.6-.106C105.121,86.856,101.6,86.927,101.463,87.032Z" transform="translate(-58.476 -35.185)" fill="#13293d"/>
</svg>
