<svg xmlns="http://www.w3.org/2000/svg" width="30" height="30.001" viewBox="0 0 30 30.001">
  <path id="instagram-glyph-1" d="M10,15a5,5,0,1,1,5,5,5,5,0,0,1-5-5M7.3,15A7.7,7.7,0,1,0,15,7.3,7.7,7.7,0,0,0,7.3,15m13.91-8.008a1.8,1.8,0,1,0,1.8-1.8,1.8,1.8,0,0,0-1.8,1.8M8.94,27.211a8.286,8.286,0,0,1-2.786-.516,4.666,4.666,0,0,1-1.725-1.122,4.636,4.636,0,0,1-1.122-1.724,8.286,8.286,0,0,1-.516-2.786C2.718,19.481,2.7,19.006,2.7,15s.016-4.48.087-6.062a8.325,8.325,0,0,1,.516-2.786A4.666,4.666,0,0,1,4.429,4.427,4.631,4.631,0,0,1,6.154,3.305,8.286,8.286,0,0,1,8.94,2.789C10.521,2.717,11,2.7,15,2.7s4.48.016,6.062.087a8.325,8.325,0,0,1,2.786.516,4.651,4.651,0,0,1,1.725,1.122A4.656,4.656,0,0,1,26.7,6.153a8.286,8.286,0,0,1,.516,2.786c.073,1.582.087,2.056.087,6.062s-.015,4.48-.087,6.062a8.318,8.318,0,0,1-.516,2.786,4.966,4.966,0,0,1-2.847,2.846,8.286,8.286,0,0,1-2.786.516c-1.581.073-2.056.087-6.062.087s-4.48-.015-6.061-.087M8.816.091a11,11,0,0,0-3.641.7,7.361,7.361,0,0,0-2.657,1.73A7.34,7.34,0,0,0,.788,5.175a11,11,0,0,0-.7,3.641C.017,10.416,0,10.927,0,15s.017,4.585.091,6.184a11,11,0,0,0,.7,3.641,7.335,7.335,0,0,0,1.73,2.657,7.356,7.356,0,0,0,2.657,1.73,11.01,11.01,0,0,0,3.641.7c1.6.073,2.111.091,6.184.091s4.585-.017,6.184-.091a11,11,0,0,0,3.641-.7,7.67,7.67,0,0,0,4.388-4.388,10.972,10.972,0,0,0,.7-3.641c.073-1.6.09-2.111.09-6.184s-.017-4.585-.09-6.184a11,11,0,0,0-.7-3.641,7.377,7.377,0,0,0-1.73-2.657A7.357,7.357,0,0,0,24.827.788a10.985,10.985,0,0,0-3.641-.7C19.587.018,19.075,0,15,0S10.417.017,8.816.091" fill="#fff"/>
</svg>
