<svg id="man-user" xmlns="http://www.w3.org/2000/svg" width="26.328" height="34.615" viewBox="0 0 26.328 34.615">
  <path id="Path_7" data-name="Path 7" d="M111.5,16.929c3.849,0,6.969-3.79,6.969-8.464S117.448,0,111.5,0s-6.969,3.79-6.969,8.465S107.655,16.929,111.5,16.929Z" transform="translate(-98.34 0)" fill="#fff"/>
  <path id="Path_8" data-name="Path 8" d="M41.9,300.518c0-.285,0-.08,0,0Z" transform="translate(-41.895 -270.665)" fill="#fff"/>
  <path id="Path_9" data-name="Path 9" d="M308.085,301.745c0-.078,0-.541,0,0Z" transform="translate(-281.759 -271.669)" fill="#fff"/>
  <path id="Path_10" data-name="Path 10" d="M68.218,189.673c-.129-8.144-1.193-10.464-9.331-11.933a4.879,4.879,0,0,1-3.816,1.46,4.879,4.879,0,0,1-3.816-1.46c-8.05,1.453-9.178,3.739-9.327,11.668-.012.647-.018.682-.02.606,0,.141,0,.4,0,.856,0,0,1.938,3.906,13.162,3.906s13.162-3.906,13.162-3.906c0-.292,0-.495,0-.633A5.274,5.274,0,0,1,68.218,189.673Z" transform="translate(-41.907 -160.161)" fill="#fff"/>
</svg>
